<svg xmlns="http://www.w3.org/2000/svg" viewBox="0 0 325.95 260.76"><defs><style>.cls-1{fill:#fff;}</style></defs><g id="Layer_2" data-name="Layer 2"><g id="Layer_1-2" data-name="Layer 1"><path class="cls-1" d="M246.52,86.33h0a82.22,82.22,0,0,1-5-86.33,79.52,79.52,0,0,0-28.41,12.51h0a79.29,79.29,0,0,0-29.9,40.14,85.14,85.14,0,0,1,40.48,58.55,85.1,85.1,0,0,1,64,40.68A79.74,79.74,0,0,0,326,120.52,82.25,82.25,0,0,1,246.52,86.33Z"/><path class="cls-1" d="M215,130.76h-9.55l-.61-9.35a65,65,0,0,0-129.68,0l-.61,9.35H65a65,65,0,0,0,0,130H215a65,65,0,0,0,0-130Z"/></g></g></svg>