<svg xmlns="http://www.w3.org/2000/svg" viewBox="0 0 353 296.97"><defs><style>.cls-1{fill:#fff;}</style></defs><g id="Layer_2" data-name="Layer 2"><g id="Layer_1-2" data-name="Layer 1"><path class="cls-1" d="M288,70h-9.55l-.61-9.34a64.91,64.91,0,0,0-110.29-42,85.29,85.29,0,0,1,56.18,65.82,84.94,84.94,0,0,1,70.51,115.24A65,65,0,0,0,288,70Z"/><path class="cls-1" d="M215,104h-9.55l-.61-9.34a65,65,0,0,0-129.68,0L74.55,104H65a65,65,0,0,0,0,130H215a65,65,0,0,0,0-130Z"/><path class="cls-1" d="M85.84,259.08a5,5,0,0,0-6.41,3L69.17,290.26a5,5,0,1,0,9.4,3.42l10.26-28.19A5,5,0,0,0,85.84,259.08Z"/><path class="cls-1" d="M121.9,259.08a5,5,0,0,0-6.41,3l-10.26,28.19a5,5,0,1,0,9.4,3.42l10.26-28.19A5,5,0,0,0,121.9,259.08Z"/><path class="cls-1" d="M158,259.08a5,5,0,0,0-6.41,3l-10.26,28.19a5,5,0,1,0,9.4,3.42L161,265.49A5,5,0,0,0,158,259.08Z"/><path class="cls-1" d="M194,259.08a5,5,0,0,0-6.41,3l-10.26,28.19a5,5,0,1,0,9.39,3.42L197,265.49A5,5,0,0,0,194,259.08Z"/><path class="cls-1" d="M230.09,259.08a5,5,0,0,0-6.41,3l-10.26,28.19a5,5,0,1,0,9.4,3.42l10.26-28.19A5,5,0,0,0,230.09,259.08Z"/></g></g></svg>