<svg xmlns="http://www.w3.org/2000/svg" viewBox="0 0 400.96 385.97"><defs><style>.cls-1{fill:#fff;}</style></defs><g id="Layer_2" data-name="Layer 2"><g id="Layer_1-2" data-name="Layer 1"><path class="cls-1" d="M355.76,270.24a6,6,0,0,1-1.95,1.34,6.1,6.1,0,0,1-6.63-1.23L324.47,248.2a6,6,0,0,1-.06-8.44l.09-.09a6,6,0,0,1,8.45-.17l22.71,22.15A6.06,6.06,0,0,1,355.76,270.24Z"/><path class="cls-1" d="M394.81,151.13l-31.72.4a6,6,0,0,0-5.85,6.07v.13a6,6,0,0,0,6,5.94l31.73-.4a5.8,5.8,0,0,0,2.31-.49,6.07,6.07,0,0,0-2.47-11.65Z"/><path class="cls-1" d="M322.46,76.54a6,6,0,0,0,8.44-.05L353,53.78a6.07,6.07,0,1,0-8.69-8.48L322.2,68a6,6,0,0,0,.17,8.45Z"/><path class="cls-1" d="M215,194.68h-9.55l-.61-9.34a65,65,0,0,0-129.68,0l-.61,9.34H65a65,65,0,0,0,0,130H215a65,65,0,0,0,0-130Z"/><path class="cls-1" d="M240.3,43.72h.12a6,6,0,0,0,6-6L246,6a6.07,6.07,0,0,0-12.14.16l.4,31.72A6,6,0,0,0,240.3,43.72Z"/><path class="cls-1" d="M150.71,78.76a6,6,0,0,0,8.45-.17l.08-.09a6,6,0,0,0-.05-8.44L136.48,47.92A6.07,6.07,0,0,0,128,56.61Z"/><path class="cls-1" d="M320.8,159.1a79.12,79.12,0,0,1-30.06,62,85.19,85.19,0,0,0-67-46,85.24,85.24,0,0,0-46.3-61.71A79,79,0,0,1,320.8,159.1Z"/><path class="cls-1" d="M76.5,348.08a5,5,0,0,0-6.41,3L59.83,379.26a5,5,0,1,0,9.4,3.42l10.26-28.19A5,5,0,0,0,76.5,348.08Z"/><path class="cls-1" d="M112.56,348.08a5,5,0,0,0-6.41,3L95.89,379.26a5,5,0,1,0,9.4,3.42l10.26-28.19A5,5,0,0,0,112.56,348.08Z"/><path class="cls-1" d="M148.62,348.08a5,5,0,0,0-6.41,3L132,379.26a5,5,0,1,0,9.4,3.42l10.26-28.19A5,5,0,0,0,148.62,348.08Z"/><path class="cls-1" d="M184.68,348.08a5,5,0,0,0-6.4,3L168,379.26a5,5,0,1,0,9.39,3.42l10.26-28.19A5,5,0,0,0,184.68,348.08Z"/><path class="cls-1" d="M220.75,348.08a5,5,0,0,0-6.41,3l-10.26,28.19a5,5,0,1,0,9.39,3.42l10.26-28.19A5,5,0,0,0,220.75,348.08Z"/></g></g></svg>