<svg xmlns="http://www.w3.org/2000/svg" viewBox="0 0 206.13 236.34"><defs><style>.cls-1{fill:#fff;}</style></defs><g id="Layer_2" data-name="Layer 2"><g id="Layer_1-2" data-name="Layer 1"><path class="cls-1" d="M206,142.18a4.24,4.24,0,0,0-5.21-3l-36.07,9.67h0l-32.47-18.75V106.25h0L164.69,87.5l36.08,9.66A4.25,4.25,0,0,0,203,89l-27.87-7.47,27.4-15.82,1.34-.77a4.25,4.25,0,1,0-4.26-7.36l-1.33.77L170.87,74.11h0l7.47-27.87a4.25,4.25,0,0,0-8.22-2.2l-9.67,36.08h0L128,98.88,107.32,87V49.46l26.41-26.41a4.26,4.26,0,1,0-6-6l-20.39,20.4V4.25a4.26,4.26,0,0,0-8.51,0V37.43L78.42,17a4.26,4.26,0,1,0-6,6L98.81,49.46V87L78.16,98.88,45.69,80.13h0L36,44.05a4.25,4.25,0,1,0-8.22,2.2l7.47,27.87h0L7.87,58.3l-1.33-.77a4.25,4.25,0,1,0-4.26,7.36l1.34.77L31,81.48,3.15,89a4.25,4.25,0,1,0,2.21,8.21L41.44,87.5l32.47,18.74h0v23.84L41.44,148.84h0L5.36,139.17a4.26,4.26,0,0,0-2.21,8.22L31,154.85,3.62,170.67l-1.34.77a4.26,4.26,0,0,0,4.26,7.37L7.87,178l27.39-15.82h0L27.8,190.08a4.25,4.25,0,1,0,8.22,2.2l9.67-36.07h0l32.47-18.75,20.65,11.92v37.5L72.4,213.29a4.26,4.26,0,0,0,6,6l20.39-20.4v33.18a4.26,4.26,0,0,0,8.51,0V198.91l20.39,20.4a4.26,4.26,0,1,0,6-6l-26.41-26.41v-37.5L128,137.46l32.47,18.75h0l9.67,36.07a4.25,4.25,0,0,0,8.22-2.2l-7.47-27.86h0L198.26,178l1.33.77a4.26,4.26,0,1,0,4.26-7.37l-1.34-.77-27.39-15.82L203,147.39A4.25,4.25,0,0,0,206,142.18Zm-98.66-2.62L103.07,142l-4.26-2.46-12.14-7-4.26-2.46V106.25l4.26-2.46,12.14-7,4.26-2.46,4.25,2.46,12.14,7,4.26,2.46v23.84l-4.26,2.46Z"/></g></g></svg>