<svg xmlns="http://www.w3.org/2000/svg" viewBox="0 0 270 229.4"><defs><style>.cls-1{fill:#fff;}</style></defs><g id="Layer_2" data-name="Layer 2"><g id="Layer_1-2" data-name="Layer 1"><path class="cls-1" d="M175.68,35.13a38.24,38.24,0,0,0-35-35,37.72,37.72,0,0,0-28.78,10.05,38.15,38.15,0,0,0-12.2,27.9,37.45,37.45,0,0,0,3.81,16.57,4.05,4.05,0,0,0,2.48,2.1,4.12,4.12,0,0,0,3.27-.4,4.06,4.06,0,0,0,1.59-5.3A29.86,29.86,0,0,1,136.08,8.22a29.88,29.88,0,1,1,1.65,59.72H4.09a4.09,4.09,0,0,0,0,8.18H137.73a38.19,38.19,0,0,0,27.9-12.2A37.78,37.78,0,0,0,175.68,35.13Z"/><path class="cls-1" d="M165.21,165.48a38.19,38.19,0,0,0-27.9-12.2H35.11a4.09,4.09,0,0,0,0,8.18h102.2a29.91,29.91,0,1,1-26.91,16.92,4.06,4.06,0,0,0-1.59-5.31,4.08,4.08,0,0,0-5.75,1.7,37.48,37.48,0,0,0-3.81,16.57,38.19,38.19,0,0,0,12.2,27.9,37.66,37.66,0,0,0,25.82,10.16c1,0,2,0,3-.11a38.22,38.22,0,0,0,35-35A37.71,37.71,0,0,0,165.21,165.48Z"/><path class="cls-1" d="M269.89,77.22a38.23,38.23,0,0,0-35-35,37.72,37.72,0,0,0-28.78,10,38.19,38.19,0,0,0-12.2,27.9,37.38,37.38,0,0,0,3.81,16.56,4.06,4.06,0,0,0,2.48,2.11,4.12,4.12,0,0,0,3.27-.4,4.06,4.06,0,0,0,1.59-5.3,29.86,29.86,0,0,1,25.26-42.81A29.88,29.88,0,1,1,231.94,110H4.09a4.09,4.09,0,1,0,0,8.18H231.94a38.19,38.19,0,0,0,27.9-12.2A37.74,37.74,0,0,0,269.89,77.22Z"/></g></g></svg>