<svg xmlns="http://www.w3.org/2000/svg" viewBox="0 0 218.43 143.84"><defs><style>.cls-1{fill:#fff;}</style></defs><g id="Layer_2" data-name="Layer 2"><g id="Layer_1-2" data-name="Layer 1"><path class="cls-1" d="M109.62,42.44h.09a4.36,4.36,0,0,0,4-4.63l-.54-31.4a4.15,4.15,0,1,0-8.24.12l.54,31.4A4.32,4.32,0,0,0,109.62,42.44Z"/><path class="cls-1" d="M52.47,61.59l.06-.06a4.09,4.09,0,0,0,0-5.79L36.91,40.55a4.17,4.17,0,0,0-5.82,6l15.59,15.2A4.08,4.08,0,0,0,52.47,61.59Z"/><path class="cls-1" d="M25.88,113.76,4.11,114a4.17,4.17,0,0,0,.11,8.34L26,122.09a4.08,4.08,0,0,0,4-4.17v-.08A4.08,4.08,0,0,0,25.88,113.76Z"/><path class="cls-1" d="M214.2,111.38l-21.76.27a4.09,4.09,0,0,0-4,4.17v.09a4.09,4.09,0,0,0,4.12,4.08l21.77-.28a4,4,0,0,0,1.59-.33,4.17,4.17,0,0,0-1.7-8Z"/><path class="cls-1" d="M170.34,60.15l15.2-15.58a4.17,4.17,0,0,0-6-5.82l-15.2,15.59a4.08,4.08,0,0,0,.12,5.79l.06.06A4.08,4.08,0,0,0,170.34,60.15Z"/><path class="cls-1" d="M163.38,118.12A54.18,54.18,0,0,0,87.85,67.07h0A54.22,54.22,0,0,0,55,118.29Z"/><path class="cls-1" d="M195.7,135.23l-175.56.28a4.09,4.09,0,0,0-4,4.17v.08a4.09,4.09,0,0,0,4.12,4.08l175.57-.27a4.23,4.23,0,0,0,1.59-.34,4.17,4.17,0,0,0-1.7-8Z"/><path class="cls-1" d="M120.46,14.65l0,0c-1.32,1.28-3.63,1.08-5.18-.5l-7.8-8.11c-1.57-1.6-1.75-4-.41-5.26s3.7-1,5.27.55l7.79,8.11C121.63,11.07,121.78,13.37,120.46,14.65Z"/><path class="cls-1" d="M98,14.65l.05,0c1.32,1.28,3.64,1.08,5.19-.5L111,6.09c1.57-1.6,1.75-4,.41-5.26s-3.7-1-5.27.55L98.34,9.49C96.79,11.07,96.64,13.37,98,14.65Z"/></g></g></svg>