<svg xmlns="http://www.w3.org/2000/svg" viewBox="0 0 187.87 227.47"><defs><style>.cls-1{fill:#fff;}</style></defs><g id="Layer_2" data-name="Layer 2"><g id="Layer_1-2" data-name="Layer 1"><path class="cls-1" d="M86.19,136.57h0A105.28,105.28,0,0,1,79.84,26.05a101.49,101.49,0,0,0-36.37,16h0A101.92,101.92,0,0,0,18.44,184h0a101.91,101.91,0,0,0,141.94,25h0a101.59,101.59,0,0,0,27.49-28.69A105.29,105.29,0,0,1,86.19,136.57Z"/><polygon class="cls-1" points="136.03 6.44 148.28 0 145.94 13.64 155.85 23.3 142.16 25.29 136.03 37.7 129.91 25.29 116.22 23.3 126.13 13.64 123.79 0 136.03 6.44"/><polygon class="cls-1" points="164.21 107.61 176.46 101.17 174.12 114.81 184.03 124.47 170.33 126.46 164.21 138.87 158.09 126.46 144.39 124.47 154.3 114.81 151.96 101.17 164.21 107.61"/></g></g></svg>