<svg xmlns="http://www.w3.org/2000/svg" viewBox="0 0 280 262.97"><defs><style>.cls-1{fill:#fff;}</style></defs><g id="Layer_2" data-name="Layer 2"><g id="Layer_1-2" data-name="Layer 1"><path class="cls-1" d="M215,70h-9.55l-.61-9.34a65,65,0,0,0-129.68,0L74.55,70H65a65,65,0,0,0,0,130H215a65,65,0,0,0,0-130Z"/><path class="cls-1" d="M74.72,225.08a5,5,0,0,0-6.41,3L58.05,256.26a5,5,0,1,0,9.39,3.42L77.7,231.49A5,5,0,0,0,74.72,225.08Z"/><path class="cls-1" d="M110.78,225.08a5,5,0,0,0-6.41,3L94.11,256.26a5,5,0,1,0,9.4,3.42l10.26-28.19A5,5,0,0,0,110.78,225.08Z"/><path class="cls-1" d="M146.84,225.08a5,5,0,0,0-6.41,3l-10.26,28.19a5,5,0,1,0,9.4,3.42l10.26-28.19A5,5,0,0,0,146.84,225.08Z"/><path class="cls-1" d="M182.9,225.08a5,5,0,0,0-6.41,3l-10.26,28.19a5,5,0,1,0,9.4,3.42l10.26-28.19A5,5,0,0,0,182.9,225.08Z"/><path class="cls-1" d="M219,225.08a5,5,0,0,0-6.4,3L202.3,256.26a5,5,0,1,0,9.39,3.42L222,231.49A5,5,0,0,0,219,225.08Z"/></g></g></svg>