<svg xmlns="http://www.w3.org/2000/svg" viewBox="0 0 262.02 262.01"><defs><style>.cls-1{fill:#fff;}</style></defs><g id="Layer_2" data-name="Layer 2"><g id="Layer_1-2" data-name="Layer 1"><path class="cls-1" d="M132.27,226h-.11a4.91,4.91,0,0,0-4.89,4.94l.33,26.12a5,5,0,0,0,5.06,4.93,4.91,4.91,0,0,0,1.91-.4,5,5,0,0,0,3-4.65l-.33-26.12A4.91,4.91,0,0,0,132.27,226Z"/><path class="cls-1" d="M129.75,36h.1a4.9,4.9,0,0,0,4.89-4.94l-.32-26.12a5,5,0,1,0-10,.14l.33,26.1A4.89,4.89,0,0,0,129.75,36Z"/><path class="cls-1" d="M63,64.7a.23.23,0,0,1,.07-.07A4.91,4.91,0,0,0,63,57.68L44.28,39.45a5,5,0,0,0-7,7.16L56,64.84A4.92,4.92,0,0,0,63,64.7Z"/><path class="cls-1" d="M206,197.18a4.89,4.89,0,0,0-7,.14l-.07.07a4.9,4.9,0,0,0,0,6.94l18.7,18.24a5,5,0,1,0,7-7.16Z"/><path class="cls-1" d="M31.05,127.27l-26.12.33a5,5,0,0,0,.13,10l26.11-.33a4.92,4.92,0,0,0,4.82-5v-.1A4.91,4.91,0,0,0,31.05,127.27Z"/><path class="cls-1" d="M257,124.42l-26.11.33a4.9,4.9,0,0,0-4.82,5v.1a4.9,4.9,0,0,0,4.94,4.89l26.12-.32A4.92,4.92,0,0,0,259,134a5,5,0,0,0-2-9.59Z"/><path class="cls-1" d="M64.63,199a4.91,4.91,0,0,0-6.95,0l-18.24,18.7a5,5,0,1,0,7.17,7L64.84,206a4.91,4.91,0,0,0-.14-7Z"/><path class="cls-1" d="M204.33,63l18.23-18.69a5,5,0,1,0-7.15-7L197.18,56a4.9,4.9,0,0,0,.14,7l.07.07A4.9,4.9,0,0,0,204.33,63Z"/><path class="cls-1" d="M105.38,71.27h0a65,65,0,1,0,51.25,119.47h0A65,65,0,0,0,105.38,71.27Z"/></g></g></svg>