<svg xmlns="http://www.w3.org/2000/svg" viewBox="0 0 353 331.47"><defs><style>.cls-1{fill:#fff;}</style></defs><g id="Layer_2" data-name="Layer 2"><g id="Layer_1-2" data-name="Layer 1"><path class="cls-1" d="M288,70h-9.55l-.61-9.34a64.91,64.91,0,0,0-110.29-42,85.29,85.29,0,0,1,56.18,65.82,84.94,84.94,0,0,1,70.51,115.24A65,65,0,0,0,288,70Z"/><path class="cls-1" d="M215,104h-9.55l-.61-9.34a65,65,0,0,0-129.68,0L74.55,104H65a65,65,0,0,0,0,130h36.88l7.87-23.58a23,23,0,0,1,21.85-15.75H157A23,23,0,0,1,178.81,225l-3,9H215a65,65,0,0,0,0-130Z"/><path class="cls-1" d="M169.78,257.73h-23l13-39.07a3,3,0,0,0-2.88-4H131.6a3,3,0,0,0-2.88,2.07l-21.38,64.14a3,3,0,0,0,2.88,4h19.65l-5.4,43.19a3,3,0,0,0,2,3.23,3.06,3.06,0,0,0,1,.18,3,3,0,0,0,2.56-1.43l42.29-67.67a3,3,0,0,0-2.57-4.64Z"/></g></g></svg>