<svg xmlns="http://www.w3.org/2000/svg" viewBox="0 0 218.43 131.53"><defs><style>.cls-1{fill:#fff;}</style></defs><g id="Layer_2" data-name="Layer 2"><g id="Layer_1-2" data-name="Layer 1"><path class="cls-1" d="M52.47,49.28l.06-.06a4.09,4.09,0,0,0,0-5.79L36.91,28.23a4.17,4.17,0,0,0-5.82,6L46.68,49.4A4.08,4.08,0,0,0,52.47,49.28Z"/><path class="cls-1" d="M25.88,101.44l-21.77.27a4.17,4.17,0,0,0,.11,8.34L26,109.78a4.09,4.09,0,0,0,4-4.17v-.09A4.09,4.09,0,0,0,25.88,101.44Z"/><path class="cls-1" d="M214.2,99.07l-21.76.27a4.09,4.09,0,0,0-4,4.17v.08a4.09,4.09,0,0,0,4.12,4.08l21.77-.27a4,4,0,0,0,1.59-.34,4.16,4.16,0,0,0-1.7-8Z"/><path class="cls-1" d="M170.34,47.84l15.2-15.59a4.17,4.17,0,0,0-6-5.82L164.37,42a4.1,4.1,0,0,0,.12,5.8l.06.06A4.09,4.09,0,0,0,170.34,47.84Z"/><path class="cls-1" d="M195.7,122.92l-175.56.27a4.09,4.09,0,0,0-4,4.17v.09a4.09,4.09,0,0,0,4.12,4.08l175.57-.28a4,4,0,0,0,1.59-.33,4.17,4.17,0,0,0-1.7-8Z"/><path class="cls-1" d="M159,83.19a54,54,0,0,0-28.6-28.48l0,0-11.56,12a14.92,14.92,0,0,1-6.48,4,13.16,13.16,0,0,1-3.82.55h-.12a13.16,13.16,0,0,1-3.82-.55,14.9,14.9,0,0,1-6.42-3.88L87,55.16A54.2,54.2,0,0,0,55,106l108.34-.16A53.91,53.91,0,0,0,159,83.19Z"/><path class="cls-1" d="M124.68,49.13,113.07,61.21A6.93,6.93,0,0,1,110,63a6,6,0,0,1-3.14,0,6.85,6.85,0,0,1-3-1.83L92.26,49.13c-2.3-2.35-2.53-5.79-.56-7.7l.07-.07c2-1.92,5.42-1.61,7.73.75L102.27,45l.67-38.27c0-3.79,2.8-6.76,6.14-6.72h.13c3.35,0,6.05,3.1,6,6.9l-.66,38.2,2.88-3c2.31-2.36,5.76-2.67,7.73-.75l.07.07C127.21,43.34,127,46.78,124.68,49.13Z"/></g></g></svg>